# xmcd
#
# Track frame offsets:
#	150
#	15206
#	27829
#	50054
#	73963
#	95981
#	119830
#	138315
#	160613
#	183197
#
# Disc length: 2879 seconds
#
# Revision: 0
# Processed by: cddbd v1.4PL0 Copyright (c) Steve Scherf et al.
# Submitted via: dBpowerAMP V4.0
#
DISCID=890b3d0a
DTITLE=professeur ruthle - nouvelle attirance
DYEAR=1900
DGENRE=
TTITLE0=changer ca
TTITLE1=nouvelle attirance
TTITLE2=call for me
TTITLE3=en suivant
TTITLE4=if you're ready
TTITLE5=i'm evil
TTITLE6=be a star
TTITLE7=feel so good
TTITLE8=what havez you done
TTITLE9=professeur boogie
EXTD=
EXTT0=
EXTT1=
EXTT2=
EXTT3=
EXTT4=
EXTT5=
EXTT6=
EXTT7=
EXTT8=
EXTT9=
PLAYORDER=
